<?xml version="1.0" standalone="no"?><!DOCTYPE svg PUBLIC "-//W3C//DTD SVG 1.1//EN" "http://www.w3.org/Graphics/SVG/1.1/DTD/svg11.dtd"><svg t="1715510255717" class="icon" viewBox="0 0 1024 1024" version="1.1" xmlns="http://www.w3.org/2000/svg" p-id="1085" xmlns:xlink="http://www.w3.org/1999/xlink" width="200" height="200"><path d="M512 512m-279.33729 0a279.33729 279.33729 0 1 0 558.67458 0 279.33729 279.33729 0 1 0-558.67458 0Z" fill="#FFD500" p-id="1086"></path><path d="M512 154.640516a16.516129 16.516129 0 0 1-16.516129-16.516129V28.903226a16.516129 16.516129 0 0 1 33.032258 0v109.221161a16.516129 16.516129 0 0 1-16.516129 16.516129zM247.630452 264.15071a16.474839 16.474839 0 0 1-11.681033-4.839226L158.72 182.077935a16.516129 16.516129 0 0 1 23.357935-23.357935l77.22942 77.233548a16.516129 16.516129 0 0 1-11.676903 28.197162zM138.124387 528.516129H28.903226a16.516129 16.516129 0 0 1 0-33.032258h109.221161a16.516129 16.516129 0 0 1 0 33.032258zM170.401032 870.110968a16.516129 16.516129 0 0 1-11.681032-28.193033l77.229419-77.22529a16.516129 16.516129 0 0 1 23.357936 23.353807l-77.22942 77.22529a16.450065 16.450065 0 0 1-11.676903 4.839226zM512 1011.612903a16.516129 16.516129 0 0 1-16.516129-16.516129v-109.221161a16.516129 16.516129 0 0 1 33.032258 0V995.096774a16.516129 16.516129 0 0 1-16.516129 16.516129zM853.594839 870.110968a16.47071 16.47071 0 0 1-11.676904-4.839226l-77.22529-77.22529a16.516129 16.516129 0 1 1 23.353807-23.353807l77.22529 77.22529a16.516129 16.516129 0 0 1-11.676903 28.193033zM995.096774 528.516129h-109.221161a16.516129 16.516129 0 0 1 0-33.032258H995.096774a16.516129 16.516129 0 0 1 0 33.032258z" fill="#6E6E96" p-id="1087"></path><path d="M507.870968 228.533677c-154.273032 0-279.33729 125.064258-279.337291 279.337291S353.597935 787.208258 507.870968 787.208258s279.33729-125.064258 279.33729-279.33729S662.144 228.533677 507.870968 228.533677z m-11.354839 511.19071c-138.88 0-251.466323-112.59871-251.466323-251.466322s112.586323-251.466323 251.466323-251.466323 251.466323 112.586323 251.466323 251.466323-112.586323 251.466323-251.466323 251.466322z" fill="#E69900" opacity=".46" p-id="1088"></path><path d="M528.627613 783.194839c-140.593548 0-254.567226-113.973677-254.567226-254.563097 0-140.58529 113.973677-254.558968 254.567226-254.558968s254.563097 113.973677 254.563097 254.558968c0 16.739097-1.659871 33.073548-4.740129 48.904258a279.927742 279.927742 0 0 0 8.757677-69.652645c0-154.273032-125.064258-279.33729-279.33729-279.33729s-279.33729 125.060129-279.337291 279.333161c0 154.268903 125.064258 279.333161 279.337291 279.333161 24.047484 0 47.388903-3.038968 69.652645-8.753548a256.388129 256.388129 0 0 1-48.896 4.736z" fill="#FFE97D" p-id="1089"></path><path d="M776.369548 264.15071a16.516129 16.516129 0 0 1-11.676903-28.193033l77.22529-77.233548a16.516129 16.516129 0 1 1 23.353807 23.357936l-77.22529 77.233548a16.466581 16.466581 0 0 1-11.676904 4.835097zM512 807.853419c-163.133935 0-295.853419-132.727742-295.853419-295.853419S348.866065 216.146581 512 216.146581 807.853419 348.866065 807.853419 512 675.133935 807.853419 512 807.853419z m0-558.67458c-144.920774 0-262.821161 117.900387-262.821161 262.821161S367.079226 774.821161 512 774.821161s262.821161-117.904516 262.821161-262.821161S656.920774 249.178839 512 249.178839z" fill="#6E6E96" p-id="1090"></path></svg>