<?xml version="1.0" standalone="no"?><!DOCTYPE svg PUBLIC "-//W3C//DTD SVG 1.1//EN" "http://www.w3.org/Graphics/SVG/1.1/DTD/svg11.dtd"><svg t="1715510266232" class="icon" viewBox="0 0 1177 1024" version="1.1" xmlns="http://www.w3.org/2000/svg" p-id="1244" xmlns:xlink="http://www.w3.org/1999/xlink" width="229.8828125" height="200"><path d="M381.533391 30.333563a300.071798 300.071798 0 0 0-31.306026-8.214882c87.11413 66.677706 127.377376 183.269055 91.931954 293.705387-45.071238 140.434663-195.436519 217.726331-335.866266 172.660009a266.587919 266.587919 0 0 1-87.404182-47.411325c33.941081 73.053949 97.113573 132.283691 179.852332 158.830887 157.2823 50.493749 325.70459-36.104186 376.18359-193.376654 50.469168-157.292132-36.109102-325.714422-193.391402-376.193422z" fill="#FFF278" p-id="1245"></path><path d="M431.437202 49.142742c106.719725 68.708074 159.587973 198.145316 120.765158 319.121869-46.801722 145.827677-209.08866 224.132071-362.482287 174.896856-46.526418-14.930339-86.873239-39.899451-119.226404-71.490614a265.580108 265.580108 0 0 1-53.26154-33.823094c33.941081 73.053949 97.113573 132.273859 179.857248 158.830887 157.2823 50.483916 325.699674-36.109102 376.178674-193.386486 44.638617-139.117136-17.948854-286.92602-141.830849-354.149418z" fill="#FFD978" p-id="1246"></path><path d="M291.007455 631.519382h-0.024581a318.610589 318.610589 0 0 1-97.467536-15.323631C109.090341 589.097947 39.226972 527.400298 1.834756 446.922967a19.664589 19.664589 0 0 1 30.273635-23.518848 246.584115 246.584115 0 0 0 80.973862 43.92086 247.360867 247.360867 0 0 0 75.649674 11.901992c107.860271 0 202.49119-69.062037 235.483455-171.848844 31.886131-99.35042-2.340086-208.690452-85.16242-272.084172A19.664589 19.664589 0 0 1 354.961615 0.418807a320.060853 320.060853 0 0 1 33.356059 8.750742c167.355486 53.708909 259.808552 233.556325 206.109475 400.911811-42.505009 132.45084-164.44021 221.438022-303.419694 221.438022z m-209.275474-133.71429c33.007013 37.25948 75.708668 65.502746 123.808253 80.944365a279.458392 279.458392 0 0 0 85.447556 13.43583c121.831962 0.009832 228.723752-78.004509 265.993065-194.123907 41.831497-130.376226-17.511317-269.395039-134.196072-331.776032 50.941118 72.291946 66.830106 166.018294 38.881809 253.107843-38.232877 119.118249-147.912123 199.153126-272.929749 199.162958a286.360663 286.360663 0 0 1-87.669654-13.789793 287.629029 287.629029 0 0 1-19.335208-6.961264z" fill="#6E6E96" p-id="1247"></path><path d="M1016.729117 532.100135c0.019665-1.351941 0.103239-2.689133 0.103239-4.055821 0-143.698985-116.493026-260.20676-260.20676-260.20676-123.714846 0-227.184998 86.371792-253.604373 202.068402a158.821054 158.821054 0 0 0-12.290369-0.530944c-85.472137 0-154.760316 69.293096-154.760316 154.7554 0 18.327397 3.200412 35.892791 9.045711 52.209484a206.920639 206.920639 0 0 0-38.149303 119.983491c0 113.302446 90.629175 205.367137 203.341684 207.835043v0.117987h399.781097c137.047438 0 248.152366-111.114761 248.152366-248.162199-0.004916-98.78998-57.799144-184.1048-141.412976-224.014083z" fill="#A1A1AD" p-id="1248"></path><path d="M1029.407861 531.780586c0.9439 8.814652 1.469928 17.757124 1.469928 26.827415 0 1.302779-0.078658 2.566229-0.103239 3.85426 61.220782 29.265825 107.816026 84.292261 125.868119 151.063374-11.562778-78.623943-60.040907-145.237739-127.234808-181.745049zM757.780891 261.603879c-123.719763 0-227.189914 86.366875-253.599458 202.068402a158.929209 158.929209 0 0 0-12.290368-0.530944c-85.472137 0-154.760316 69.293096-154.760316 154.760317 0 18.317565 3.205328 35.882959 9.050627 52.204568a206.920639 206.920639 0 0 0-38.149303 119.978574c0 100.697445 71.62335 184.591498 166.696722 203.725144-68.850643-30.794747-116.851905-99.955107-116.851905-180.373444a196.87695 196.87695 0 0 1 36.16318-113.980875 147.051798 147.051798 0 0 1-8.578677-49.594094c0-81.190172 65.684644-146.99772 146.707667-146.99772 3.928002 0 7.79701 0.206478 11.651269 0.506363 25.04777-109.895556 123.129825-191.936222 240.404518-191.936222 101.444699 0 188.563745 61.40268 226.447576 149.126412-27.555006-114.133275-130.297568-198.956481-252.891532-198.956481z" fill="#FFFFFF" opacity=".15" p-id="1249"></path><path d="M909.989727 1023.945922h-399.781097c-0.924236 0-1.828807-0.058994-2.713713-0.181897-58.880696-1.873052-113.941546-26.031-155.26668-68.191879-41.92982-42.775398-65.02588-99.330756-65.02588-159.248759 0-43.974937 12.46735-86.307882 36.148431-123.036418a174.070943 174.070943 0 0 1-7.044839-49.156557c0-95.240521 76.731227-172.9009 171.627618-174.400325 34.526102-119.472211 142.784582-201.562039 268.696946-201.562038 151.638563 0 275.491061 121.22236 279.753361 271.84328 86.307882 46.339604 141.422809 137.671789 141.417892 236.107806-0.004916 147.690897-120.135891 267.826788-267.812039 267.826787z m-397.603244-39.329178H909.984811c125.986106 0 228.482861-102.501671 228.482861-228.492693 0.004916-87.561499-51.108267-168.525529-130.204161-206.28154a19.664589 19.664589 0 0 1-11.194067-18.027512l0.06391-2.148357c0.019665-0.540776 0.044245-1.086469 0.044245-1.632161 0-132.632738-107.904517-240.54217-240.54217-240.54217-112.923903 0-209.324635 76.809885-234.436316 186.7841a19.703918 19.703918 0 0 1-20.687148 15.230224 136.92945 136.92945 0 0 0-10.771278-0.47195c-74.489464 0-135.095727 60.601348-135.095728 135.090811 0 15.6186 2.659636 30.952063 7.895333 45.577602a19.664589 19.664589 0 0 1-2.46299 17.993099 186.990578 186.990578 0 0 0-34.535934 108.62719c0 101.53319 82.591274 185.958187 184.104799 188.17537 0.580105 0.024581 1.165127 0.06391 1.740316 0.117987z" fill="#6E6E96" p-id="1250"></path><path d="M1021.463367 529.450332c0.024581-1.356857 0.103239-2.689133 0.103239-4.055822 0-118.783951-79.631754-218.911122-188.39168-250.094244 78.678021 41.541445 132.332853 124.132719 132.332852 219.289665 0 1.302779-0.078658 44.348565-0.103239 45.641512 79.651418 38.006735 134.697519 77.512894 134.69752 171.63745 0 130.548291-105.82007 236.38311-236.378194 236.38311H482.909264v-0.117988c-66.928429-1.460096-125.666557-36.094353-160.428634-88.117024 27.235456 80.895204 102.835969 139.544841 192.467166 141.501467v0.117988h399.781097c137.047438 0 248.142534-111.109845 248.142534-248.157283 0-98.804728-57.794227-184.119548-141.40806-224.028831z" fill="#6E6E96" opacity=".25" p-id="1251"></path></svg>